<?xml version="1.0" standalone="no"?>
<!DOCTYPE svg PUBLIC "-//W3C//DTD SVG 20010904//EN"
 "http://www.w3.org/TR/2001/REC-SVG-20010904/DTD/svg10.dtd">
<svg version="1.0" xmlns="http://www.w3.org/2000/svg"
 width="1021.000000pt" height="994.000000pt" viewBox="0 0 1021.000000 994.000000"
 preserveAspectRatio="xMidYMid meet">

<g transform="translate(0.000000,994.000000) scale(0.100000,-0.100000)"
fill="#000000" stroke="none">
<path d="M3190 5595 l0 -1825 1900 0 1900 0 0 1825 0 1825 -1900 0 -1900 0 0
-1825z m2985 1696 l670 -1 -860 -852 c-473 -468 -1065 -1056 -1315 -1305
l-455 -453 -3 1125 -2 1125 -280 0 -280 0 0 -160 0 -160 115 0 115 0 0 -1133
0 -1134 -230 -226 -229 -227 -56 0 -55 0 0 1704 0 1705 1098 -3 c603 -2 1399
-4 1767 -5z m695 -1781 l0 -1620 -1630 0 c-896 0 -1630 4 -1630 8 0 5 39 46
88 93 48 46 719 712 1492 1479 1366 1357 1672 1660 1678 1660 1 0 2 -729 2
-1620z"/>
<path d="M4680 6118 l0 -812 75 74 75 74 2 661 3 660 164 0 164 0 77 -165 c42
-91 114 -241 159 -334 l81 -170 55 54 c30 30 55 58 55 62 0 6 -126 275 -292
626 l-39 82 -289 0 -290 0 0 -812z"/>
<path d="M5075 6050 c3 -184 7 -335 8 -337 2 -1 51 46 109 105 l107 107 -105
220 c-57 121 -109 224 -114 229 -7 7 -9 -103 -5 -324z"/>
<path d="M6392 6497 l-72 -72 0 -1008 0 -1008 -136 3 -136 3 -236 495 c-131
272 -256 537 -280 588 -23 50 -46 92 -50 92 -4 0 -31 -24 -60 -53 l-52 -53 89
-190 c82 -176 419 -880 472 -986 l23 -48 258 0 258 0 0 1155 c0 635 -1 1155
-3 1155 -1 0 -35 -33 -75 -73z"/>
<path d="M5998 6107 l-78 -72 -2 -212 -3 -211 -65 139 c-36 76 -67 139 -70
139 -3 0 -30 -25 -60 -55 l-54 -54 91 -193 c220 -469 308 -648 315 -648 4 0 8
279 8 620 0 341 -1 620 -2 620 -2 -1 -38 -33 -80 -73z"/>
<path d="M5151 5266 l-73 -73 -1 -389 -2 -389 -116 -3 -117 -3 -4 33 c-3 17
-3 137 0 265 3 138 1 233 -4 233 -5 0 -42 -33 -82 -73 l-72 -72 0 -268 0 -267
275 0 275 0 0 540 c0 297 -1 540 -3 540 -1 0 -35 -33 -76 -74z"/>
<path d="M7100 7405 c0 -8 9 -15 20 -15 18 0 20 -7 20 -60 0 -47 3 -60 15 -60
12 0 15 13 15 59 0 52 3 60 20 63 41 6 19 23 -35 26 -44 2 -55 0 -55 -13z"/>
<path d="M7248 7355 c-3 -71 -1 -85 13 -85 5 0 9 21 9 48 l0 47 21 -32 c12
-18 25 -33 30 -33 5 0 16 15 26 33 l18 32 3 -47 c5 -77 22 -55 22 28 0 85 -11
93 -45 31 -11 -20 -22 -37 -25 -37 -3 0 -15 18 -28 40 -12 22 -27 40 -31 40
-5 0 -11 -29 -13 -65z"/>
<path d="M5670 3040 l0 -240 45 0 45 0 0 113 c0 106 2 115 23 135 29 28 68 28
93 1 16 -18 20 -40 22 -135 l4 -114 39 0 39 0 0 140 0 140 -29 32 c-26 30 -35
33 -84 33 -38 0 -61 -5 -74 -17 -11 -10 -23 -18 -26 -18 -4 0 -7 38 -7 85 l0
85 -45 0 -45 0 0 -240z"/>
<path d="M6080 3236 l0 -46 51 0 50 0 -3 43 -3 42 -47 3 -48 3 0 -45z"/>
<path d="M5420 3190 c0 -43 -3 -50 -20 -50 -16 0 -20 -7 -20 -35 0 -28 4 -35
20 -35 19 0 20 -7 20 -97 0 -73 4 -107 18 -133 20 -41 64 -58 115 -44 28 8 32
14 35 47 3 36 2 37 -23 31 -45 -11 -55 9 -55 107 l0 89 45 0 c45 0 45 0 45 34
0 34 -1 35 -42 38 l-43 3 -3 48 -3 47 -45 0 -44 0 0 -50z"/>
<path d="M3220 3134 c-75 -33 -115 -98 -108 -180 8 -90 69 -149 167 -161 124
-14 221 94 197 221 -19 101 -154 164 -256 120z m141 -93 c62 -62 20 -171 -66
-171 -27 0 -44 8 -66 29 -62 62 -20 171 66 171 27 0 44 -8 66 -29z"/>
<path d="M3688 3126 c-36 -24 -38 -24 -38 -6 0 17 -7 20 -45 20 l-45 0 0 -170
0 -170 45 0 45 0 0 109 c0 94 3 112 21 135 25 32 68 35 95 5 16 -18 19 -37 19
-135 l0 -114 43 0 42 0 0 140 c0 139 0 140 -28 171 -40 44 -103 51 -154 15z"/>
<path d="M4040 3128 c-100 -51 -121 -197 -42 -282 65 -69 183 -74 254 -10 16
15 15 17 -9 38 -26 22 -26 22 -62 4 -43 -22 -85 -17 -118 14 -45 42 -33 48 98
48 l121 0 -4 55 c-10 125 -127 190 -238 133z m127 -70 c46 -52 40 -58 -53 -58
l-85 0 16 30 c28 53 86 67 122 28z"/>
<path d="M4714 3140 c-12 -5 -25 -13 -29 -19 -9 -16 -25 -13 -25 4 0 11 -12
15 -45 15 l-45 0 0 -170 0 -170 45 0 45 0 0 119 c0 113 1 121 22 135 12 9 32
16 43 16 11 0 31 -7 43 -16 21 -14 22 -22 22 -135 l0 -119 45 0 45 0 0 130 c0
98 -4 139 -15 160 -26 50 -95 73 -151 50z"/>
<path d="M5070 3134 c-67 -29 -110 -93 -110 -164 0 -134 143 -219 268 -159
134 65 133 259 -2 320 -49 22 -109 24 -156 3z m144 -95 c57 -67 15 -169 -69
-169 -53 0 -95 44 -95 100 0 91 108 136 164 69z"/>
<path d="M6408 3132 c-30 -16 -38 -17 -38 -6 0 10 -13 14 -45 14 l-45 0 0
-170 0 -170 45 0 45 0 0 115 c0 102 2 117 20 135 11 11 31 20 45 20 14 0 34
-9 45 -20 18 -18 20 -33 20 -135 l0 -115 46 0 45 0 -3 145 c-3 141 -4 145 -29
171 -36 36 -100 42 -151 16z"/>
<path d="M6765 3137 c-38 -18 -60 -43 -80 -90 -20 -48 -19 -93 5 -144 25 -56
70 -83 137 -83 44 0 58 5 88 31 l35 31 0 -26 c0 -93 -97 -131 -211 -82 -18 8
-54 -37 -44 -54 3 -5 31 -17 62 -26 71 -21 159 -14 207 15 56 35 66 76 66 266
l0 165 -45 0 c-39 0 -45 -3 -45 -20 0 -20 0 -20 -29 1 -36 26 -106 34 -146 16z
m129 -71 c64 -27 69 -108 10 -155 -38 -30 -79 -27 -115 8 -46 46 -33 121 26
147 38 17 39 17 79 0z"/>
<path d="M6090 2970 l0 -170 40 0 40 0 0 170 0 170 -40 0 -40 0 0 -170z"/>
</g>
</svg>
